<svg xmlns="http://www.w3.org/2000/svg" width="262" height="276" viewBox="0 0 262 276" version="1.1"><path d="M 97 21.421 C 80.092 23.469, 72.230 25.563, 74.167 27.500 C 74.369 27.702, 79.251 28.811, 85.017 29.965 C 90.783 31.120, 97.493 32.724, 99.928 33.532 C 102.364 34.339, 105.437 35, 106.758 35 C 110.397 35, 129.483 45.192, 138.392 51.893 C 146.230 57.789, 149.258 58.704, 148.257 54.876 C 147.881 53.435, 148.327 52.727, 149.868 52.324 C 151.494 51.899, 152 50.993, 152 48.506 C 152 46.712, 152.675 44.685, 153.500 44 C 154.325 43.315, 155 42.204, 155 41.531 C 155 40.857, 155.900 39.268, 157 38 C 158.100 36.732, 159 35.286, 159 34.788 C 159 34.290, 159.445 34.157, 159.989 34.493 C 160.555 34.843, 160.723 34.442, 160.382 33.552 C 160.054 32.698, 160.005 32, 160.272 32 C 161.455 32, 172.020 37.223, 172.540 38.065 C 173.397 39.452, 174.667 39.198, 174.667 37.639 C 174.667 36.890, 173.954 36.328, 173.083 36.389 C 172.213 36.450, 171.592 35.999, 171.705 35.386 C 171.956 34.017, 158.834 27.784, 149.969 25.061 C 136.787 21.012, 113.550 19.415, 97 21.421 M 176 39.059 C 176 39.641, 176.450 39.840, 177 39.500 C 177.550 39.160, 178 38.684, 178 38.441 C 178 38.198, 177.550 38, 177 38 C 176.450 38, 176 38.477, 176 39.059 M 181.184 45.504 C 181.811 46.882, 182.518 47.815, 182.754 47.580 C 183.460 46.873, 181.938 43, 180.954 43 C 180.453 43, 180.556 44.127, 181.184 45.504 M 183.813 49.683 C 184.534 49.972, 185.397 49.936, 185.729 49.604 C 186.061 49.272, 185.471 49.036, 184.417 49.079 C 183.252 49.127, 183.015 49.364, 183.813 49.683 M 184 55.500 C 184 57.975, 184.401 60, 184.892 60 C 186.150 60, 187.038 55.862, 186.347 53.220 C 185.360 49.447, 184 50.768, 184 55.500 M 182.440 63.382 C 182.079 64.822, 181.382 66, 180.892 66 C 180.401 66, 180 66.477, 180 67.059 C 180 67.641, 180.478 67.823, 181.062 67.462 C 182.334 66.676, 184.256 61.923, 183.577 61.243 C 183.313 60.980, 182.802 61.942, 182.440 63.382 M 173 72 C 170.805 73.201, 170.153 73.932, 171.250 73.958 C 172.213 73.981, 173.283 74.112, 173.628 74.250 C 173.973 74.388, 174.928 73.487, 175.750 72.250 C 177.535 69.561, 177.466 69.555, 173 72 M 159 73 C 159.825 73.533, 160.950 73.969, 161.500 73.969 C 162.050 73.969, 161.825 73.533, 161 73 C 160.175 72.467, 159.050 72.031, 158.500 72.031 C 157.950 72.031, 158.175 72.467, 159 73 M 171.813 121.683 C 172.534 121.972, 173.397 121.936, 173.729 121.604 C 174.061 121.272, 173.471 121.036, 172.417 121.079 C 171.252 121.127, 171.015 121.364, 171.813 121.683 M 182 121.383 C 182 121.594, 183.111 121.979, 184.470 122.239 C 185.828 122.499, 186.702 122.326, 186.411 121.856 C 185.899 121.027, 182 120.610, 182 121.383 M 188 124.531 C 188 125.339, 188.675 126, 189.500 126 C 190.325 126, 191 125.598, 191 125.107 C 191 124.616, 190.325 123.955, 189.500 123.638 C 188.586 123.288, 188 123.637, 188 124.531 M 162.254 130.949 C 158.296 143.634, 131.403 172.925, 121.415 175.432 C 119.879 175.818, 117.380 177.018, 115.861 178.099 C 114.343 179.180, 110.490 181.249, 107.300 182.697 C 101.317 185.412, 100.042 186.498, 100.015 188.898 C 100.003 190.039, 101.602 190.173, 108.750 189.628 C 127.405 188.205, 151.937 181.563, 164.512 174.531 C 173.572 169.464, 190.738 156.064, 188.289 155.970 C 187.855 155.953, 188.287 155.481, 189.250 154.920 C 190.213 154.359, 191 153.248, 191 152.450 C 191 151.653, 191.450 151, 192 151 C 192.550 151, 193 150.293, 193 149.429 C 193 148, 192.857 148, 191.429 149.429 C 189.437 151.421, 187.886 151.460, 188.638 149.500 C 189.277 147.836, 187.478 147.418, 186.498 149.003 C 186.091 149.661, 185.127 149.615, 183.689 148.867 C 180.666 147.295, 180.716 147.399, 181.890 145.205 C 183.295 142.580, 180.493 139.296, 176.458 138.836 C 174.753 138.643, 173.606 137.970, 173.750 137.250 C 173.888 136.563, 173.550 136, 173 136 C 172.450 136, 172 134.875, 172 133.500 C 172 132.125, 171.550 131, 171 131 C 170.450 131, 170 131.750, 170 132.667 C 170 133.583, 169.704 134.037, 169.342 133.675 C 168.980 133.313, 168.133 133.475, 167.459 134.034 C 165.706 135.489, 164.715 132.401, 166.103 129.807 C 166.900 128.319, 166.899 127.945, 166.100 128.438 C 165.495 128.812, 165 128.641, 165 128.059 C 165 125.603, 163.396 127.291, 162.254 130.949 M 194.459 130.067 C 194.096 130.653, 194.014 131.348, 194.276 131.610 C 194.538 131.872, 195.019 131.392, 195.345 130.543 C 196.021 128.781, 195.445 128.471, 194.459 130.067 M 196.211 134.399 C 196.920 135.169, 197.658 135.649, 197.850 135.466 C 198.443 134.902, 196.940 133, 195.902 133 C 195.362 133, 195.501 133.630, 196.211 134.399 M 196 138.941 C 196 140.073, 196.450 141, 197 141 C 197.550 141, 198 140.352, 198 139.559 C 198 138.766, 197.550 137.840, 197 137.500 C 196.450 137.160, 196 137.809, 196 138.941 M 194.345 144.543 C 194.019 145.392, 193.976 146.310, 194.249 146.583 C 194.523 146.856, 194.986 146.161, 195.279 145.040 C 195.903 142.657, 195.210 142.289, 194.345 144.543 M 176 145 C 176 145.550, 176.450 146, 177 146 C 177.550 146, 178 145.550, 178 145 C 178 144.450, 177.550 144, 177 144 C 176.450 144, 176 144.450, 176 145 M 186 145.059 C 186 145.641, 186.450 145.840, 187 145.500 C 187.550 145.160, 188 144.684, 188 144.441 C 188 144.198, 187.550 144, 187 144 C 186.450 144, 186 144.477, 186 145.059 M 186 152.441 C 186 153.298, 186.450 154, 187 154 C 187.550 154, 188 153.577, 188 153.059 C 188 152.541, 187.550 151.840, 187 151.500 C 186.450 151.160, 186 151.584, 186 152.441" stroke="none" fill="#f2b959" fill-rule="evenodd"/><path d="M 160.382 33.552 C 160.723 34.442, 160.555 34.843, 159.989 34.493 C 159.445 34.157, 159 34.290, 159 34.788 C 159 35.286, 158.100 36.732, 157 38 C 155.900 39.268, 155 40.857, 155 41.531 C 155 42.204, 154.325 43.315, 153.500 44 C 152.675 44.685, 152 46.712, 152 48.506 C 152 50.993, 151.494 51.899, 149.868 52.324 C 148.327 52.727, 147.881 53.435, 148.257 54.876 C 149.258 58.704, 146.230 57.789, 138.392 51.893 C 129.211 44.988, 110.358 35, 106.505 35 C 102.404 35, 90.682 42.531, 83.102 50.036 C 70.386 62.626, 63.378 77.860, 61.440 97.126 C 60.695 104.524, 63.096 120.441, 66.247 129 C 74.180 150.545, 92.045 167.293, 114.348 174.093 C 121.535 176.284, 123.040 175.809, 132.098 168.491 C 145.002 158.065, 159.377 140.169, 162.254 130.949 C 163.396 127.291, 165 125.603, 165 128.059 C 165 128.641, 165.495 128.812, 166.100 128.438 C 166.899 127.945, 166.900 128.319, 166.103 129.807 C 164.715 132.401, 165.706 135.489, 167.459 134.034 C 168.133 133.475, 168.980 133.313, 169.342 133.675 C 169.704 134.037, 170 133.583, 170 132.667 C 170 131.750, 170.450 131, 171 131 C 171.550 131, 172 132.125, 172 133.500 C 172 134.875, 172.450 136, 173 136 C 173.550 136, 173.887 136.562, 173.750 137.250 C 173.606 137.970, 174.753 138.643, 176.458 138.836 C 180.493 139.296, 183.295 142.580, 181.890 145.205 C 180.716 147.399, 180.666 147.295, 183.689 148.867 C 185.127 149.615, 186.091 149.661, 186.498 149.003 C 187.478 147.418, 189.277 147.836, 188.638 149.500 C 187.886 151.460, 189.437 151.421, 191.429 149.429 C 192.857 148, 193 148, 193 149.429 C 193 150.293, 192.550 151, 192 151 C 191.450 151, 191 151.779, 191 152.732 C 191 153.839, 191.937 153.086, 193.594 150.646 C 196.517 146.345, 198.366 141, 196.930 141 C 196.419 141, 196 140.073, 196 138.941 C 196 137.809, 196.450 137.160, 197 137.500 C 198.548 138.457, 198.180 136.323, 196.509 134.652 C 195.464 133.607, 195.367 133.044, 196.186 132.771 C 196.869 132.544, 197.021 131.843, 196.552 131.084 C 195.900 130.029, 195.574 130.040, 194.809 131.143 C 194.162 132.077, 194.075 131.772, 194.529 130.165 C 195.903 125.301, 186.569 119, 177.990 119 C 171.617 119, 168.097 120.793, 160.415 127.952 C 155.870 132.188, 152.836 134.092, 148.422 135.481 C 127.394 142.095, 108.463 129.760, 104.957 107.160 C 102.528 91.508, 109.726 76.532, 122.351 70.971 C 131.832 66.794, 142.384 67.463, 155.106 73.046 C 161.596 75.895, 167.855 76.760, 171.595 75.325 C 173.259 74.686, 173.260 74.618, 171.614 74.040 C 170.232 73.555, 170.614 73.078, 173.473 71.714 L 177.071 69.998 175.870 72.249 C 174.711 74.422, 174.787 74.411, 178.085 71.927 C 181.746 69.169, 186.717 60.739, 185.016 60.172 C 183.539 59.680, 183.746 51.269, 185.250 50.662 C 185.938 50.385, 185.600 50.115, 184.500 50.064 C 183 49.993, 182.836 49.756, 183.844 49.117 C 184.961 48.410, 184.936 47.776, 183.697 45.380 C 181.750 41.615, 178.406 38.631, 177.063 39.461 C 176.478 39.822, 176 39.525, 176 38.800 C 176 37.030, 172.437 34.895, 170.636 35.586 C 169.843 35.890, 167.368 35.208, 165.137 34.070 C 160.278 31.591, 159.601 31.517, 160.382 33.552 M 172.226 37.574 C 173.176 38.568, 174.227 39.107, 174.562 38.771 C 174.897 38.436, 174.120 37.623, 172.836 36.964 C 170.603 35.819, 170.576 35.846, 172.226 37.574 M 181.184 45.504 C 181.811 46.882, 182.518 47.815, 182.754 47.580 C 183.460 46.873, 181.938 43, 180.954 43 C 180.453 43, 180.556 44.127, 181.184 45.504 M 182.440 63.382 C 182.079 64.822, 181.382 66, 180.892 66 C 180.401 66, 180 66.477, 180 67.059 C 180 67.641, 180.478 67.823, 181.062 67.462 C 182.334 66.676, 184.256 61.923, 183.577 61.243 C 183.313 60.980, 182.802 61.942, 182.440 63.382 M 159 73 C 159.825 73.533, 160.950 73.969, 161.500 73.969 C 162.050 73.969, 161.825 73.533, 161 73 C 160.175 72.467, 159.050 72.031, 158.500 72.031 C 157.950 72.031, 158.175 72.467, 159 73 M 171.813 121.683 C 172.534 121.972, 173.397 121.936, 173.729 121.604 C 174.061 121.272, 173.471 121.036, 172.417 121.079 C 171.252 121.127, 171.015 121.364, 171.813 121.683 M 182 121.383 C 182 121.594, 183.111 121.979, 184.470 122.239 C 185.828 122.499, 186.702 122.326, 186.411 121.856 C 185.899 121.027, 182 120.610, 182 121.383 M 188 124.531 C 188 125.339, 188.675 126, 189.500 126 C 190.325 126, 191 125.598, 191 125.107 C 191 124.616, 190.325 123.955, 189.500 123.638 C 188.586 123.288, 188 123.637, 188 124.531 M 194.345 144.543 C 194.019 145.392, 193.976 146.310, 194.249 146.583 C 194.523 146.856, 194.986 146.161, 195.279 145.040 C 195.903 142.657, 195.210 142.289, 194.345 144.543 M 176 145 C 176 145.550, 176.450 146, 177 146 C 177.550 146, 178 145.550, 178 145 C 178 144.450, 177.550 144, 177 144 C 176.450 144, 176 144.450, 176 145 M 186 145.059 C 186 145.641, 186.450 145.840, 187 145.500 C 187.550 145.160, 188 144.684, 188 144.441 C 188 144.198, 187.550 144, 187 144 C 186.450 144, 186 144.477, 186 145.059 M 186 152.441 C 186 153.298, 186.450 154, 187 154 C 187.550 154, 188 153.577, 188 153.059 C 188 152.541, 187.550 151.840, 187 151.500 C 186.450 151.160, 186 151.584, 186 152.441 M 98.190 186.580 C 95.502 188.463, 95.364 190, 97.883 190 C 98.984 190, 100.006 189.084, 100.344 187.794 C 101.099 184.906, 100.811 184.744, 98.190 186.580 M 48.500 217.417 C 39.996 221.213, 36.498 231.042, 41.174 238 C 44.145 242.420, 50.043 245.343, 56.170 245.431 C 62.018 245.516, 64.511 243.556, 63.170 239.930 C 62.381 237.798, 61.654 237.500, 57.240 237.500 C 51.253 237.500, 48 235.157, 48 230.845 C 48 226.268, 51.112 224, 57.392 224 C 62.420 224, 62.829 223.818, 63.464 221.289 C 63.963 219.299, 63.675 218.236, 62.381 217.289 C 60.107 215.626, 52.352 215.698, 48.500 217.417 M 73.667 216.667 C 73.300 217.033, 73 223.243, 73 230.467 C 73 244.251, 73.507 246, 77.500 246 C 80.686 246, 82 244.044, 82 239.300 C 82 235.380, 82.221 235, 84.500 235 C 86.786 235, 87 235.375, 87 239.378 C 87 242.032, 87.585 244.241, 88.487 244.989 C 90.240 246.444, 94.979 245.534, 95.045 243.731 C 95.435 233.122, 95.197 218.128, 94.624 217.201 C 93.530 215.430, 88.324 215.713, 87.607 217.582 C 87.273 218.452, 87 220.927, 87 223.082 C 87 226.595, 86.741 227, 84.500 227 C 82.259 227, 82 226.595, 82 223.082 C 82 217.239, 81.223 216, 77.560 216 C 75.785 216, 74.033 216.300, 73.667 216.667 M 116.171 217.294 C 115.581 218.005, 112.840 224.193, 110.082 231.044 C 105.513 242.389, 105.214 243.611, 106.724 244.750 C 109.343 246.724, 111.347 246.237, 114.261 242.916 C 116.606 240.243, 117.465 239.899, 120.707 240.336 C 122.764 240.614, 124.611 241.334, 124.813 241.938 C 126.055 245.666, 132.475 247.531, 133.638 244.502 C 133.954 243.678, 132.316 238.165, 129.999 232.252 C 123.948 216.814, 123.453 216, 120.097 216 C 118.528 216, 116.762 216.582, 116.171 217.294 M 149.077 218.589 C 143.441 223.331, 145.292 229.132, 153.814 233.442 C 155.636 234.363, 156.941 235.653, 156.713 236.309 C 156.265 237.594, 154.338 237.642, 149.283 236.494 C 146.423 235.844, 145.927 236.066, 144.822 238.491 C 143.736 240.875, 143.821 241.396, 145.493 242.619 C 150.917 246.584, 159.834 246.036, 163.750 241.497 C 168.063 236.497, 166.112 231.565, 158.250 227.591 C 153.878 225.382, 154.009 223.578, 158.489 224.304 C 161.311 224.763, 162.266 224.459, 163.489 222.713 C 165.638 219.644, 165.427 219.076, 161.532 217.449 C 156.388 215.299, 152.571 215.649, 149.077 218.589 M 175.462 217.239 C 175.173 217.991, 175.064 224.384, 175.219 231.446 C 175.459 242.396, 175.758 244.448, 177.250 245.388 C 180.218 247.257, 182.433 244.949, 183 239.398 L 183.500 234.500 186.500 238.391 C 191.720 245.160, 192.827 246, 196.531 246 C 202.051 246, 201.947 243.744, 196.120 237.045 C 193.304 233.807, 191 230.878, 191 230.536 C 191 230.194, 192.800 227.530, 195 224.616 C 200.197 217.733, 200.216 216, 195.094 216 C 191.536 216, 190.844 216.469, 187.344 221.250 L 183.500 226.500 183 221.500 C 182.521 216.708, 182.364 216.487, 179.243 216.186 C 177.175 215.987, 175.795 216.371, 175.462 217.239 M 211.627 217.529 C 210.627 220.135, 210.902 240.612, 211.975 243.435 C 212.631 245.160, 213.696 245.995, 215.225 245.985 C 219.859 245.953, 220.076 245.211, 219.779 230.423 L 219.500 216.500 215.877 216.197 C 213.253 215.978, 212.082 216.345, 211.627 217.529 M 118.605 230.588 C 117.750 232.816, 117.818 233, 119.500 233 C 120.325 233, 121 232.352, 121 231.559 C 121 229.443, 119.307 228.757, 118.605 230.588" stroke="none" fill="#e49b1f" fill-rule="evenodd"/></svg>